HIERARCHY
ROOT SpineBase
{
  OFFSET 0.000000 0.000000 0.000000
  CHANNELS 6 Xposition Yposition Zposition Zrotation Xrotation Yrotation
  JOINT SpineMid
  {
    OFFSET -0.000000 32.084843 0.000000
    CHANNELS 3 Zrotation Xrotation Yrotation
    JOINT SpineShoulder
    {
      OFFSET 0.172699 23.765679 -0.627299
      CHANNELS 3 Zrotation Xrotation Yrotation
      JOINT Neck
      {
        OFFSET 0.131363 7.845544 -0.519013
        CHANNELS 3 Zrotation Xrotation Yrotation
        JOINT Head
        {
          OFFSET 4.393215 12.179728 3.739830
          CHANNELS 3 Zrotation Xrotation Yrotation
          End Site
          {
            OFFSET 0 0 0
          }
        }
      }
      JOINT ShoulderLeft
      {
        OFFSET -8.540908 -2.358385 -14.333530
        CHANNELS 3 Zrotation Xrotation Yrotation
        JOINT ElbowLeft
        {
          OFFSET -3.527851 -23.383723 -6.267553
          CHANNELS 3 Zrotation Xrotation Yrotation
          JOINT WristLeft
          {
            OFFSET 6.191020 -20.955848 -0.838764
            CHANNELS 3 Zrotation Xrotation Yrotation
            JOINT HandLeft
            {
              OFFSET 2.100583 -6.879072 2.448063
              CHANNELS 3 Zrotation Xrotation Yrotation
              JOINT HandTipLeft
              {
                OFFSET 1.998406 -6.359169 -1.466339
                CHANNELS 3 Zrotation Xrotation Yrotation
                End Site
                {
                  OFFSET 0 0 0
                }
              }
              JOINT ThumbLeft
              {
                OFFSET 2.424011 2.170243 -1.966110
                CHANNELS 3 Zrotation Xrotation Yrotation
                End Site
                {
                  OFFSET 0 0 0
                }
              }
            }
          }
        }
      }
      JOINT ShoulderRight
      {
        OFFSET 9.437125 -4.012255 14.959812
        CHANNELS 3 Zrotation Xrotation Yrotation
        JOINT ElbowRight
        {
          OFFSET 2.774799 -27.939620 -4.788918
          CHANNELS 3 Zrotation Xrotation Yrotation
          JOINT WristRight
          {
            OFFSET 12.268190 0.231305 -9.730115
            CHANNELS 3 Zrotation Xrotation Yrotation
            JOINT HandRight
            {
              OFFSET 4.578827 0.254622 -3.248605
              CHANNELS 3 Zrotation Xrotation Yrotation
              JOINT HandTipRight
              {
                OFFSET 1.956598 1.288001 -3.653035
                CHANNELS 3 Zrotation Xrotation Yrotation
                End Site
                {
                  OFFSET 0 0 0
                }
              }
              JOINT ThumbRight
              {
                OFFSET 1.627033 4.572941 -1.692718
                CHANNELS 3 Zrotation Xrotation Yrotation
                End Site
                {
                  OFFSET 0 0 0
                }
              }
            }
          }
        }
      }
    }
  }
  JOINT HipLeft
  {
    OFFSET -3.173522 2.008753 -9.558640
    CHANNELS 3 Zrotation Xrotation Yrotation
    JOINT KneeLeft
    {
      OFFSET -8.254270 -33.237599 -3.064590
      CHANNELS 3 Zrotation Xrotation Yrotation
      JOINT AnkleLeft
      {
        OFFSET -11.819441 -36.251811 5.442785
        CHANNELS 3 Zrotation Xrotation Yrotation
        JOINT FootLeft
        {
          OFFSET 8.835330 -3.062601 -8.007979
          CHANNELS 3 Zrotation Xrotation Yrotation
          End Site
          {
            OFFSET 0 0 0
          }
        }
      }
    }
  }
  JOINT HipRight
  {
    OFFSET 5.223646 -0.195417 2.363132
    CHANNELS 3 Zrotation Xrotation Yrotation
    JOINT KneeRight
    {
      OFFSET -3.149423 -34.132868 3.837871
      CHANNELS 3 Zrotation Xrotation Yrotation
      JOINT AnkleRight
      {
        OFFSET -7.612200 -33.612824 3.104427
        CHANNELS 3 Zrotation Xrotation Yrotation
        JOINT FootRight
        {
          OFFSET 8.633955 -3.096020 -8.086221
          CHANNELS 3 Zrotation Xrotation Yrotation
          End Site
          {
            OFFSET 0 0 0
          }
        }
      }
    }
  }
}
MOTION
Frames: 14
Frame Time: 0.033333
-91.664897 71.186340 329.029257 1.089329 -1.008277 -55.388674 0.186228 -0.344052 55.437614 -0.208402 -0.032794 0.038506 1.130897 1.517280 -0.720201 0.000000 0.000000 0.000000 0.913029 1.860653 -0.611299 -0.561033 -2.061359 0.012338 -4.964818 5.245080 0.506977 6.139860 -5.941757 -0.660097 0.000000 0.000000 0.000000 0.000000 0.000000 0.000000 8.359478 -9.112606 -2.069203 -2.946764 14.991414 -7.699617 16.367731 13.787710 0.122518 -20.756732 -4.764423 -11.985319 0.000000 0.000000 0.000000 0.000000 0.000000 0.000000 -1.448529 -0.323917 55.394165 1.740848 -0.786547 0.531868 -1.733642 0.802309 -0.507779 0.000000 0.000000 0.000000 0.411146 1.094103 55.698943 -0.242053 -0.706995 0.205964 -1.972565 1.450947 -0.484505 0.000000 0.000000 0.000000
-91.663612 71.214231 328.992471 1.028533 -0.957585 -55.159129 0.158744 -0.394900 55.203937 -0.242284 -0.028335 0.031384 1.343126 1.333220 -0.679378 0.000000 0.000000 0.000000 1.124143 1.735373 -0.606593 -1.013616 -1.942988 0.036681 -4.420750 5.297891 0.547142 6.046043 -6.029698 -0.747152 0.000000 0.000000 0.000000 0.000000 0.000000 0.000000 9.112231 -9.096610 -2.113298 -1.956840 15.971266 -8.443181 14.850642 12.901097 1.507036 -23.676107 -9.620787 -11.911139 0.000000 0.000000 0.000000 0.000000 0.000000 0.000000 -1.373486 -0.297162 55.164162 1.772050 -0.801262 0.541871 -2.036921 0.867027 0.340756 0.000000 0.000000 0.000000 0.525444 1.090103 55.472069 -0.247487 -0.659590 0.199467 -2.235096 1.501508 0.382907 0.000000 0.000000 0.000000
-91.656740 71.243525 328.960066 0.943787 -0.929332 -54.984299 0.136035 -0.453510 55.024543 -0.269386 -0.033159 0.024061 1.606767 1.200833 -0.653284 0.000000 0.000000 0.000000 1.213625 1.710464 -0.569836 -1.413819 -1.827818 0.050912 -3.413723 4.935315 0.549693 5.269287 -5.334548 -0.720200 0.000000 0.000000 0.000000 0.000000 0.000000 0.000000 9.770311 -9.106036 -2.152603 -1.228519 16.749549 -9.025902 13.054273 11.947163 3.704411 -25.230103 -12.537567 -12.213824 0.000000 0.000000 0.000000 0.000000 0.000000 0.000000 -1.302627 -0.239767 54.989228 1.810557 -0.796262 0.546294 -2.123666 0.865052 0.471564 0.000000 0.000000 0.000000 0.618077 1.120081 55.297120 -0.234251 -0.615778 0.193722 -2.287235 1.488161 0.520228 0.000000 0.000000 0.000000
-91.652764 71.275984 328.931611 0.846236 -0.928712 -54.866803 0.121181 -0.510533 54.902673 -0.283715 -0.051873 0.017785 1.821728 1.198448 -0.646639 0.000000 0.000000 0.000000 1.213146 1.789000 -0.519445 -1.764608 -1.765231 0.052775 -2.595448 4.177977 0.352913 4.606396 -4.873476 -0.670245 0.000000 0.000000 0.000000 0.000000 0.000000 0.000000 10.173867 -9.110981 -2.176337 -0.658219 17.300297 -9.449945 11.535923 11.051910 5.441256 -27.649896 -16.557241 -12.954238 0.000000 0.000000 0.000000 0.000000 0.000000 0.000000 -1.246476 -0.157668 54.871947 1.870980 -0.771352 0.547376 -2.226713 0.823963 0.533873 0.000000 0.000000 0.000000 0.680424 1.202429 55.177663 -0.247440 -0.636239 0.197497 -2.320703 1.492252 0.579301 0.000000 0.000000 0.000000
-91.651310 71.301593 328.911061 0.739493 -0.955353 -54.805406 0.125338 -0.563349 54.837491 -0.286341 -0.077489 0.012901 1.950671 1.314740 -0.647335 0.000000 0.000000 0.000000 1.073635 1.978078 -0.445143 -1.930102 -1.814385 0.013986 -1.592786 3.897924 0.404838 3.243396 -4.984766 -0.789800 0.000000 0.000000 0.000000 0.000000 0.000000 0.000000 10.290597 -9.147908 -2.183653 -0.478913 17.509864 -9.614970 10.504792 10.452510 6.823022 -30.161482 -19.505993 -15.428773 0.000000 0.000000 0.000000 0.000000 0.000000 0.000000 -1.206901 -0.053746 54.811006 1.932609 -0.758649 0.552820 -2.325587 0.775907 0.522129 0.000000 0.000000 0.000000 0.723518 1.327089 55.114013 -0.290398 -0.682018 0.202922 -2.332961 1.490439 0.566624 0.000000 0.000000 0.000000
-91.645421 71.322708 328.898146 0.631395 -1.000079 -54.735485 0.135848 -0.597977 54.764217 -0.277233 -0.105223 0.009483 1.993651 1.490900 -0.648221 0.000000 0.000000 0.000000 0.843501 2.212812 -0.358042 -1.896554 -1.902049 -0.043116 -1.124285 3.790453 0.399980 2.810454 -4.430043 -0.631213 0.000000 0.000000 0.000000 0.000000 0.000000 0.000000 10.641998 -9.068718 -2.222311 -0.723635 17.527811 -9.529766 10.411576 10.456177 7.195684 -30.482356 -19.741637 -15.827322 0.000000 0.000000 0.000000 0.000000 0.000000 0.000000 -1.181083 0.061812 54.741633 2.029664 -0.765255 0.570542 -2.457122 0.744941 0.483871 0.000000 0.000000 0.000000 0.741888 1.452010 55.039852 -0.309886 -0.730652 0.210987 -2.351242 1.484960 0.537794 0.000000 0.000000 0.000000
-91.640846 71.333233 328.900695 0.526855 -1.060872 -54.655420 0.137769 -0.618493 54.680947 -0.273327 -0.122986 0.005995 2.069770 1.659887 -0.662409 0.000000 0.000000 0.000000 0.636376 2.404936 -0.272625 -1.684471 -1.973239 -0.105843 -0.936868 3.652902 0.373459 2.570105 -4.423258 -0.634616 0.000000 0.000000 0.000000 0.000000 0.000000 0.000000 10.870547 -9.004222 -2.247752 -0.775033 17.608730 -9.424350 10.575878 10.578340 7.115207 -29.586074 -18.484788 -15.430559 0.000000 0.000000 0.000000 0.000000 0.000000 0.000000 -1.170118 0.183903 54.662176 2.097970 -0.772396 0.583887 -2.558780 0.714560 0.447680 0.000000 0.000000 0.000000 0.740053 1.578259 54.954609 -0.309585 -0.770184 0.218488 -2.381433 1.468832 0.509016 0.000000 0.000000 0.000000
-91.630005 71.343601 328.916853 0.444732 -1.129534 -54.531521 0.133394 -0.628255 54.554668 -0.265555 -0.139039 0.003754 2.143792 1.864612 -0.703430 0.000000 0.000000 0.000000 0.375825 2.617137 -0.184584 -1.143707 -2.288037 -0.241784 -1.330527 4.454937 0.591342 3.682152 -5.396579 -0.993208 0.000000 0.000000 0.000000 0.000000 0.000000 0.000000 10.916279 -9.018094 -2.258691 -0.452953 17.867233 -9.778889 10.248167 10.483954 7.718766 -28.427814 -15.623834 -17.441869 0.000000 0.000000 0.000000 0.000000 0.000000 0.000000 -1.177999 0.293155 54.538918 2.135601 -0.762463 0.586452 -2.625488 0.666396 0.408827 0.000000 0.000000 0.000000 0.731588 1.676291 54.827118 -0.303369 -0.774924 0.220466 -2.407357 1.435528 0.471089 0.000000 0.000000 0.000000
-91.617725 71.365842 328.901876 0.394889 -1.154020 -54.422924 0.148916 -0.622749 54.444837 -0.243636 -0.147620 0.003999 2.131273 2.076515 -0.759575 0.000000 0.000000 0.000000 0.118609 2.768921 -0.118069 -0.723916 -2.478950 -0.324741 -1.579527 4.910749 0.723632 3.721988 -5.636629 -1.008870 0.000000 0.000000 0.000000 0.000000 0.000000 0.000000 10.564194 -9.276722 -2.231428 0.297144 18.437709 -9.861356 11.340243 11.827813 8.574363 -26.833739 -11.648417 -18.842225 0.000000 0.000000 0.000000 0.000000 0.000000 0.000000 -1.168364 0.350172 54.430471 2.149356 -0.745511 0.582781 -2.655505 0.619265 0.366032 0.000000 0.000000 0.000000 0.767047 1.713126 54.719265 -0.313845 -0.759869 0.219737 -2.412571 1.417820 0.423305 0.000000 0.000000 0.000000
-91.638477 71.386457 328.854789 0.333021 -1.130880 -54.292875 0.198397 -0.568596 54.313445 -0.228180 -0.139472 0.005041 1.981508 2.212487 -0.776981 0.000000 0.000000 0.000000 -0.053868 2.809600 -0.083894 -0.348800 -2.644952 -0.386966 -2.033730 5.564030 0.892451 4.768270 -6.444900 -1.263220 0.000000 0.000000 0.000000 0.000000 0.000000 0.000000 10.013028 -9.612165 -2.178814 1.278959 19.109679 -9.628125 12.911571 13.675433 9.615761 -24.851586 -7.194851 -20.801029 0.000000 0.000000 0.000000 0.000000 0.000000 0.000000 -1.112672 0.389563 54.299944 2.159342 -0.739108 0.582156 -2.675027 0.591874 0.329744 0.000000 0.000000 0.000000 0.917473 1.750562 54.598643 -0.394480 -0.711106 0.209822 -2.396677 1.420156 0.383128 0.000000 0.000000 0.000000
-91.609380 71.403414 328.795421 0.381069 -1.082729 -54.195423 0.211818 -0.573954 54.217592 -0.175520 -0.143436 0.009677 1.723854 2.336174 -0.785505 0.000000 0.000000 0.000000 -0.119711 2.762993 -0.098268 0.010576 -2.660005 -0.391783 -2.587178 6.059315 1.039436 5.561882 -7.562098 -1.592909 0.000000 0.000000 0.000000 0.000000 0.000000 0.000000 9.282063 -9.968886 -2.122195 3.036701 20.313979 -8.954616 13.024655 13.782995 10.314354 -20.398424 -1.334115 -22.305801 0.000000 0.000000 0.000000 0.000000 0.000000 0.000000 -1.101057 0.324320 54.202140 2.126112 -0.707876 0.566075 -2.641390 0.558803 0.339216 0.000000 0.000000 0.000000 1.011197 1.626999 54.511954 -0.431259 -0.606587 0.194432 -2.360752 1.411241 0.381654 0.000000 0.000000 0.000000
-91.545595 71.411291 328.726496 0.508622 -1.028254 -54.172835 0.211950 -0.604220 54.199183 -0.099290 -0.150278 0.017724 1.269733 2.466880 -0.757939 0.000000 0.000000 0.000000 -0.067584 2.636213 -0.163256 0.205644 -2.491198 -0.328773 -3.161870 6.486908 1.165874 6.721931 -8.208515 -1.805964 0.000000 0.000000 0.000000 0.000000 0.000000 0.000000 8.493359 -9.878310 -2.062479 5.843740 21.846008 -8.031125 12.404576 13.045571 10.905925 -16.212832 3.088156 -20.871906 0.000000 0.000000 0.000000 0.000000 0.000000 0.000000 -1.131410 0.189446 54.179269 2.088301 -0.673056 0.548049 -2.593488 0.535697 0.364742 0.000000 0.000000 0.000000 1.047967 1.401833 54.500811 -0.452063 -0.476149 0.176129 -2.295328 1.399588 0.398662 0.000000 0.000000 0.000000
-91.453722 71.409232 328.655429 0.683782 -0.983642 -54.183414 0.209039 -0.644697 54.215750 -0.007384 -0.154646 0.028299 0.762385 2.667792 -0.754826 0.000000 0.000000 0.000000 -0.099949 2.574794 -0.229322 0.313062 -2.251754 -0.229194 -3.238606 6.538646 1.261825 6.367311 -8.589427 -1.975442 0.000000 0.000000 0.000000 0.000000 0.000000 0.000000 7.697515 -9.484445 -2.001418 8.564348 23.096626 -7.072538 12.069004 12.713162 11.675210 -13.699872 5.662193 -19.539417 0.000000 0.000000 0.000000 0.000000 0.000000 0.000000 -1.197756 0.021089 54.189505 2.039784 -0.625809 0.524070 -2.521626 0.488186 0.325618 0.000000 0.000000 0.000000 1.012542 1.136900 54.519724 -0.473045 -0.387388 0.165117 -2.188270 1.393635 0.342875 0.000000 0.000000 0.000000
-91.355114 71.398234 328.591726 0.882626 -0.938594 -54.332024 0.204479 -0.680166 54.371108 0.078665 -0.154417 0.039509 0.200060 2.831711 -0.729549 0.000000 0.000000 0.000000 -0.035690 2.459269 -0.324640 0.337660 -1.989859 -0.114301 -3.804051 6.055229 1.042729 6.472925 -8.413250 -1.834920 0.000000 0.000000 0.000000 0.000000 0.000000 0.000000 7.063965 -8.975615 -1.950989 13.155506 25.872783 -5.513910 9.909685 9.699865 10.388246 -13.053884 6.296673 -15.950084 0.000000 0.000000 0.000000 0.000000 0.000000 0.000000 -0.548688 -0.722807 54.572503 2.024793 0.303675 0.247972 -2.450053 0.461540 0.250859 0.000000 0.000000 0.000000 0.923795 0.883963 54.672731 -0.530578 -0.386481 0.165690 -2.039217 1.424424 0.253078 0.000000 0.000000 0.000000
